<svg xmlns="http://www.w3.org/2000/svg" x="0px" y="0px"
width="48" height="48"
viewBox="0 0 172 172"
style=" fill:#000000;"><g fill="none" fill-rule="nonzero" stroke="none" stroke-width="1" stroke-linecap="butt" stroke-linejoin="miter" stroke-miterlimit="10" stroke-dasharray="" stroke-dashoffset="0" font-family="none" font-weight="none" font-size="none" text-anchor="none" style="mix-blend-mode: normal"><path d="M0,172v-172h172v172z" fill="#070439"></path><g fill="#ffffff"><path d="M86,14.33333c-39.51676,0 -71.66667,32.14993 -71.66667,71.66667c0,39.51673 32.1499,71.66667 71.66667,71.66667c39.51676,0 71.66667,-32.14993 71.66667,-71.66667c0,-39.51673 -32.1499,-71.66667 -71.66667,-71.66667zM86,25.08333c33.70704,0 60.91667,27.20965 60.91667,60.91667c0,30.0311 -21.61761,54.84784 -50.16667,59.91585v-41.99919h12.98958c1.806,0 3.33317,-1.35075 3.55534,-3.14241l1.34375,-10.75c0.129,-1.01767 -0.19401,-2.03948 -0.87484,-2.81348c-0.67725,-0.77042 -1.65209,-1.21078 -2.6805,-1.21078h-14.33333v-12.54167c0,-3.95242 3.21425,-7.16667 7.16667,-7.16667h7.16667c1.978,0 3.58333,-1.60175 3.58333,-3.58333v-12.09375c0,-1.85617 -1.41598,-3.4045 -3.26139,-3.56934c-0.21142,-0.01792 -5.267,-0.46191 -11.66683,-0.46191c-15.79175,0 -24.48844,9.37467 -24.48844,26.39909v13.01758h-14.33333c-1.978,0 -3.58333,1.60175 -3.58333,3.58333v10.75c0,1.98158 1.60533,3.58333 3.58333,3.58333h14.33333v41.99919c-28.54905,-5.06802 -50.16667,-29.88475 -50.16667,-59.91585c0,-33.70702 27.20963,-60.91667 60.91667,-60.91667z"></path></g></g></svg>